<svg width="45" height="44" viewBox="0 0 45 44" fill="none" xmlns="http://www.w3.org/2000/svg">
<path d="M29.6087 4.31415C30.3188 4.35668 30.8667 4.93944 30.8478 5.63212V7.48997C36.4891 8.01398 39.375 10.9992 39.375 16.3664V31.2133C39.375 37.1838 35.8207 40.2168 28.8261 40.2168H16.1739C9.17935 40.2168 5.625 37.1838 5.625 31.2133V16.3664C5.625 12.7936 6.89674 10.2371 9.50543 8.74442L9.68842 8.64457C10.0666 8.47557 10.5101 8.49106 10.8788 8.69598C11.3089 8.93506 11.5629 9.39073 11.5344 9.87224C11.506 10.3538 11.2 10.778 10.7446 10.9675C9.0163 11.952 8.20109 13.6669 8.20109 16.3664V16.8427H31.9891C32.7005 16.8427 33.2772 17.4044 33.2772 18.0972C33.2772 18.79 32.7005 19.3516 31.9891 19.3516H8.20109V31.2133C8.20109 35.7706 10.5163 37.6602 16.1739 37.692H28.8261C34.4022 37.692 36.7826 35.7547 36.7826 31.1974V16.3505C36.7826 12.3807 34.9728 10.4594 30.8478 9.99886V11.2057C30.7527 11.8489 30.1744 12.3185 29.5076 12.294C28.8408 12.2695 28.3005 11.7588 28.2554 11.1104V5.52096L28.2793 5.32241C28.3324 5.06221 28.4693 4.82323 28.6728 4.64177C28.9271 4.41493 29.2643 4.29692 29.6087 4.31415ZM30.3506 29.7991L30.5582 29.8119C30.9142 29.8547 31.2481 30.011 31.5058 30.2595C31.8151 30.5578 31.9891 30.9641 31.9891 31.388C31.9891 32.265 31.2592 32.9759 30.3587 32.9759C29.4582 32.9759 28.7283 32.265 28.7283 31.388C28.7283 30.511 29.4582 29.8001 30.3587 29.8001L30.3506 29.7991ZM22.5326 29.8001L22.7371 29.8124C23.5411 29.9104 24.163 30.5785 24.163 31.388C24.163 32.265 23.4331 32.9759 22.5326 32.9759C21.6321 32.9759 20.9022 32.265 20.9022 31.388C20.9022 30.511 21.6321 29.8001 22.5326 29.8001ZM14.715 29.7991L14.9223 29.8119C15.2783 29.8547 15.6122 30.011 15.87 30.2595C16.1793 30.5578 16.3533 30.9641 16.3533 31.388C16.3533 32.265 15.6233 32.9759 14.7228 32.9759C13.8224 32.9759 13.0924 32.265 13.0924 31.388C13.0924 30.511 13.8224 29.8001 14.7228 29.8001L14.715 29.7991ZM30.3506 23.3687L30.5582 23.3809C30.9142 23.4236 31.2481 23.5799 31.5058 23.8285C31.8151 24.1267 31.9891 24.5331 31.9891 24.957C31.9891 25.8339 31.2592 26.5449 30.3587 26.5449C29.4582 26.5449 28.7283 25.8339 28.7283 24.957C28.7283 24.08 29.4582 23.369 30.3587 23.369L30.3506 23.3687ZM22.5326 23.369L22.7371 23.3814C23.5411 23.4794 24.163 24.1474 24.163 24.957C24.163 25.8339 23.4331 26.5449 22.5326 26.5449C21.6321 26.5449 20.9022 25.8339 20.9022 24.957C20.9022 24.08 21.6321 23.369 22.5326 23.369ZM14.715 23.3687L14.9223 23.3809C15.2783 23.4236 15.6122 23.5799 15.87 23.8285C16.1793 24.1267 16.3533 24.5331 16.3533 24.957C16.3533 25.8339 15.6233 26.5449 14.7228 26.5449C13.8224 26.5449 13.0924 25.8339 13.0924 24.957C13.0924 24.08 13.8224 23.369 14.7228 23.369L14.715 23.3687ZM15.4484 4.5036C16.1124 4.5036 16.6704 4.98945 16.7446 5.63212V7.36294H24.1141C24.8255 7.36294 25.4022 7.92457 25.4022 8.61738C25.4022 9.3102 24.8255 9.87183 24.1141 9.87183H16.712V11.1263C16.712 11.4617 16.574 11.7833 16.329 12.019C16.0839 12.2547 15.752 12.385 15.4076 12.3807L15.2193 12.3627C14.6056 12.2594 14.1438 11.7347 14.1521 11.1104V5.63212L14.1885 5.44435C14.339 4.89714 14.8507 4.5036 15.4484 4.5036Z" fill="#200E32"/>
</svg>
