<svg width="96" height="96" viewBox="0 0 96 96" fill="none" xmlns="http://www.w3.org/2000/svg">
<path d="M16 44.4001V25.5001C16 23.8334 16.4833 22.3334 17.45 21.0001C18.4167 19.6668 19.6667 18.7001 21.2 18.1001L45.2 9.1001C46.1333 8.76676 47.0667 8.6001 48 8.6001C48.9333 8.6001 49.8667 8.76676 50.8 9.1001L74.8 18.1001C76.3333 18.7001 77.5833 19.6668 78.55 21.0001C79.5167 22.3334 80 23.8334 80 25.5001V44.4001C80 53.7334 77.3333 62.4501 72 70.5501C66.6667 78.6501 59.5 84.2001 50.5 87.2001C50.1 87.3334 49.7 87.4334 49.3 87.5001C48.9 87.5668 48.4667 87.6001 48 87.6001C47.5333 87.6001 47.1 87.5668 46.7 87.5001C46.3 87.4334 45.9 87.3334 45.5 87.2001C36.5 84.2001 29.3333 78.6501 24 70.5501C18.6667 62.4501 16 53.7334 16 44.4001ZM40 64.0001H56C57.1333 64.0001 58.0833 63.6168 58.85 62.8501C59.6167 62.0834 60 61.1334 60 60.0001V48.0001C60 46.8668 59.6167 45.9168 58.85 45.1501C58.0833 44.3834 57.1333 44.0001 56 44.0001V40.0001C56 37.8001 55.2167 35.9168 53.65 34.3501C52.0833 32.7834 50.2 32.0001 48 32.0001C45.8 32.0001 43.9167 32.7834 42.35 34.3501C40.7833 35.9168 40 37.8001 40 40.0001V44.0001C38.8667 44.0001 37.9167 44.3834 37.15 45.1501C36.3833 45.9168 36 46.8668 36 48.0001V60.0001C36 61.1334 36.3833 62.0834 37.15 62.8501C37.9167 63.6168 38.8667 64.0001 40 64.0001ZM44 44.0001V40.0001C44 38.8668 44.3833 37.9168 45.15 37.1501C45.9167 36.3834 46.8667 36.0001 48 36.0001C49.1333 36.0001 50.0833 36.3834 50.85 37.1501C51.6167 37.9168 52 38.8668 52 40.0001V44.0001H44Z" fill="#0052FE"/>
</svg>
