<svg width="177" height="51" viewBox="0 0 177 51" fill="none" xmlns="http://www.w3.org/2000/svg">
<path d="M36.3447 0.999997V8.7H22.5547V50H14.5047V8.7H0.644727V0.999997H36.3447ZM44.7874 20.88C46.7007 16.54 50.2941 14.37 55.5674 14.37V22.56C52.6741 22.3733 50.1541 23.0733 48.0074 24.66C45.8607 26.2 44.7874 28.7667 44.7874 32.36V50H37.2274V15H44.7874V20.88ZM68.2932 8.35C67.3598 9.28333 66.2398 9.75 64.9332 9.75C63.6265 9.75 62.4832 9.28333 61.5032 8.35C60.5698 7.37 60.1032 6.22666 60.1032 4.92C60.1032 3.61333 60.5698 2.49333 61.5032 1.56C62.4365 0.579997 63.5798 0.0899959 64.9332 0.0899959C66.2865 0.0899959 67.4298 0.579997 68.3632 1.56C69.2965 2.49333 69.7632 3.61333 69.7632 4.92C69.7632 6.22666 69.2732 7.37 68.2932 8.35ZM61.1532 50V15H68.7132V50H61.1532ZM101.221 15H109.481L95.8311 50H87.0811L73.4311 15H81.6911L91.4911 41.6L101.221 15ZM121.408 8.35C120.475 9.28333 119.355 9.75 118.048 9.75C116.742 9.75 115.598 9.28333 114.618 8.35C113.685 7.37 113.218 6.22666 113.218 4.92C113.218 3.61333 113.685 2.49333 114.618 1.56C115.552 0.579997 116.695 0.0899959 118.048 0.0899959C119.402 0.0899959 120.545 0.579997 121.478 1.56C122.412 2.49333 122.878 3.61333 122.878 4.92C122.878 6.22666 122.388 7.37 121.408 8.35ZM114.268 50V15H121.828V50H114.268ZM161.896 50H153.146L144.466 38.03L135.716 50H126.896L140.056 32.01L127.596 15H136.346L144.396 26.06L152.446 15H161.266L148.806 32.08L161.896 50ZM175.233 49.3C174.207 50.3267 172.97 50.84 171.523 50.84C170.077 50.84 168.84 50.3267 167.813 49.3C166.787 48.2733 166.273 47.0367 166.273 45.59C166.273 44.1433 166.763 42.9067 167.743 41.88C168.77 40.8533 170.03 40.34 171.523 40.34C172.97 40.34 174.207 40.8533 175.233 41.88C176.26 42.9067 176.773 44.1433 176.773 45.59C176.773 47.0367 176.26 48.2733 175.233 49.3Z" fill="white"/>
</svg>
